<?xml version="1.0" encoding="utf-8"?>
<!-- Generator: Adobe Illustrator 19.0.0, SVG Export Plug-In . SVG Version: 6.00 Build 0)  -->
<svg version="1.1" id="Layer_1" xmlns="http://www.w3.org/2000/svg" xmlns:xlink="http://www.w3.org/1999/xlink" x="0px" y="0px"
	 viewBox="0 0 447.6 339.6" style="enable-background:new 0 0 447.6 339.6;" xml:space="preserve">
<style type="text/css">
	.st0{fill:#508FBA;}
	.st1{fill:none;stroke:#FFFFFF;stroke-width:5;stroke-miterlimit:10;}
</style>
<g id="XMLID_14_">
	<g id="XMLID_10_">
		<g id="XMLID_92_">
			<path id="XMLID_93_" class="st0" d="M414.4,61.8c-5.5,0-11.6,0-16.5,0c-0.2,2.1-0.2,5.7-0.2,8.1l10,0.3c0.5,0,0.5,0.3,0.5,0.8
				c-1.8,5.8-4.1,12.5-8.3,23.8c-3.4,9.2-5,13.9-9.1,21.6c0,0-6.6-14.5-10-24.9c-3.6-10.4-6.2-16.2-7.5-20.6l11.6-0.3
				c0.2-2.4,0.2-6.8,0.2-8.9c-6.4,0-13.1,0-19.7,0c-2.8,0-9.4,0-12.7,0c0.1-17.1-0.8-33.6-0.8-47.4c0-0.4-0.2-0.5-0.4-0.5
				c-1.8,0-19.7,3.4-28.8,4.5c-0.2,2.3-0.2,5-0.2,7.7l14.4,0.3c0.2,13.1,0.3,39.6,0.3,39.6c-5.2-2-11.4-3.6-17.9-3.6
				c-11.6,0-32.3,4.3-36.8,22.6c-1.3-14.7-9.5-21.4-24-21.4c-15.5,0-32.9,13.1-37.2,16.9c-2-3.8-2.8-4.6-4.8-7
				c-6.3-7.9-16-12.5-28.6-12.5c-23.9,0-41.5,15.3-48.4,36.6c-4.2-14.8-17.1-26.9-32.3-31c-13.3-3.8-22.1-4.4-37.8-4.4
				c-18.5,0-37.8,0.3-53.3,0.5c-0.3,4.1-0.3,8.5-0.3,12.6l19.1,0.8l-0.3,150.1c-6.4,0.9-18.8,1.9-18.8,1.9c0,4.1-0.3,8.5-0.3,12.9
				c9.1-0.3,19.6-0.3,30.1-0.3c11.3,0,24,0,33.4,0c0.3-4.1,0.3-8.8,0.3-12.6l-23.2-1.1v-62c1.1-0.3,5-0.5,16-0.5
				c13.5,0,19.3,3.3,25.7,12.9c8.8,13.4,25.7,51.1,35.4,64c3.9,0,12.7-0.3,18-0.3c5.8-0.3,13.3-0.3,18.2-0.3
				c0.3-4.1,0.3-8.8,0.3-12.9l-16.8-0.8c-3.3,0-5.8-2.7-15.2-20.3c-14.1-26.6-23.4-42.8-33.1-48.3c13.8-5.8,26.3-17.4,32.4-31.2
				c3.4,23.3,18.5,39.5,46.5,39.5c10.4,0,24.9-3.6,38.5-10.1c-1.8-3.4-4.3-7.5-6.2-10.8c-8.5,3.4-17.5,7.7-28.6,7.7
				c-9.9,0-15.9-1.4-23.2-9.6c-5.6-6.5-8.2-16.6-7.7-29.8c15,0,47-0.2,61.3-0.7c4-0.5,6-5.8,7.2-8.9c0-4.6,0.6-9.4-0.4-14.1
				c10.2-9.9,21.7-15.1,29.7-15.1c12,0,16.9,7.3,16.3,28c-2,0-6.7,0-13.6-0.2c-26.1,0-36.5,16.3-36.5,27.2
				c0,11.1,10.8,19.1,20.6,19.1c6.9,0,21.5-1.8,29.5-8.8c1.7,4.8,4.5,7,6.5,8.8c7.5,0.8,17.4-1.8,19.9-2.5c0.2-2.7,0.2-5.9,0-8.2
				l-10.5,0.4c-1.2,0-1.8-1-1.8-2.9c0-2.6-0.6-6-0.6-12.5c2.6,7.2,12.8,19.9,32,17.8c16.3-1.8,23.2-8.1,23.2-8.1
				c1.8,4.1,3.6,6.7,5.4,8.1c8.2,0.4,15.5-2,18.4-2.9V131l-9.6,0.5c-1.4,0-2-1.3-2-3.8c0.1-17.6,1.3-55.7,1.3-56.8
				c1.2,0,6.4,0.2,6.4,0.2c0.5,0,0.8,0.2,0.8,0.5c2.6,6.7,5.5,12.8,9.6,23.4c4.6,12.5,8.7,22.2,13.9,35.4
				c-2.6,6.5-7.7,13.9-12.2,19.3c-4.1,4.7-9.1,9.2-14.7,13c0,1.9,7.3,7.1,10.1,7.1c4.4-2.4,13.8-13,19.1-20.4
				c11.4-15.9,17-29.9,23.7-47.3c5.7-14.9,8.8-26.9,10.6-31.8l7.2-0.5c0.2-2.3,0.2-5.9,0.2-8C423.4,61.8,418.8,61.8,414.4,61.8z
				 M71,152c-8,0-13.3,0-14.6-0.5l0.6-75.2c1.7-0.8,6.6-1.4,15.7-1.4c27.1,0,45.6,12.9,45.6,38.7C118.3,130,106.1,152,71,152z
				 M204,102.3c-13.8,0.5-33.4,0.7-47.2,0.7c0.7-12.3,7-19.7,10.2-23.3c4.1-4.6,9.7-7.5,18.2-7.5c6.8,0,11.9,2.9,15.5,7.2
				c3.6,4.3,6.5,12,6.5,20.2C207.2,101.4,206,102.1,204,102.3z M269.7,129.6c0,1,0,1.4-0.6,1.6c-7.5,5.3-16.1,8-21.8,8
				c-7.7,0-13-4.3-13-10.5c0-8.8,7.1-16,24.6-16c5.7,0,9.8,0.2,10.8,0.4C269.7,118.3,269.7,125.9,269.7,129.6z M336.4,125.1
				c-5.8,4.1-9.5,7-17.1,7c-5.6,0-14.5-3.6-18.3-8.7c-4.2-5.6-6.9-10.6-6.9-19.6c0-10.3,1.8-16.2,6-22.2c4.2-5.6,13.2-9.8,20.6-9.8
				c6.3,0,12.3,1.8,17.6,4.7c0.2,13.7-0.8,30-0.8,46C337.5,123.6,337.5,124.4,336.4,125.1z"/>
		</g>
		<g id="XMLID_78_">
			<path id="XMLID_79_" class="st1" d="M414.4,61.8c-5.5,0-11.6,0-16.5,0c-0.2,2.1-0.2,5.7-0.2,8.1l10,0.3c0.5,0,0.5,0.3,0.5,0.8
				c-1.8,5.8-4.1,12.5-8.3,23.8c-3.4,9.2-5,13.9-9.1,21.6c0,0-6.6-14.5-10-24.9c-3.6-10.4-6.2-16.2-7.5-20.6l11.6-0.3
				c0.2-2.4,0.2-6.8,0.2-8.9c-6.4,0-13.1,0-19.7,0c-2.8,0-9.4,0-12.7,0c0.1-17.1-0.8-33.6-0.8-47.4c0-0.4-0.2-0.5-0.4-0.5
				c-1.8,0-19.7,3.4-28.8,4.5c-0.2,2.3-0.2,5-0.2,7.7l14.4,0.3c0.2,13.1,0.3,39.6,0.3,39.6c-5.2-2-11.4-3.6-17.9-3.6
				c-11.6,0-32.3,4.3-36.8,22.6c-1.3-14.7-9.5-21.4-24-21.4c-15.5,0-32.9,13.1-37.2,16.9c-2-3.8-2.8-4.6-4.8-7
				c-6.3-7.9-16-12.5-28.6-12.5c-23.9,0-41.5,15.3-48.4,36.6c-4.2-14.8-17.1-26.9-32.3-31c-13.3-3.8-22.1-4.4-37.8-4.4
				c-18.5,0-37.8,0.3-53.3,0.5c-0.3,4.1-0.3,8.5-0.3,12.6l19.1,0.8l-0.3,150.1c-6.4,0.9-18.8,1.9-18.8,1.9c0,4.1-0.3,8.5-0.3,12.9
				c9.1-0.3,19.6-0.3,30.1-0.3c11.3,0,24,0,33.4,0c0.3-4.1,0.3-8.8,0.3-12.6l-23.2-1.1v-62c1.1-0.3,5-0.5,16-0.5
				c13.5,0,19.3,3.3,25.7,12.9c8.8,13.4,25.7,51.1,35.4,64c3.9,0,12.7-0.3,18-0.3c5.8-0.3,13.3-0.3,18.2-0.3
				c0.3-4.1,0.3-8.8,0.3-12.9l-16.8-0.8c-3.3,0-5.8-2.7-15.2-20.3c-14.1-26.6-23.4-42.8-33.1-48.3c13.8-5.8,26.3-17.4,32.4-31.2
				c3.4,23.3,18.5,39.5,46.5,39.5c10.4,0,24.9-3.6,38.5-10.1c-1.8-3.4-4.3-7.5-6.2-10.8c-8.5,3.4-17.5,7.7-28.6,7.7
				c-9.9,0-15.9-1.4-23.2-9.6c-5.6-6.5-8.2-16.6-7.7-29.8c15,0,47-0.2,61.3-0.7c4-0.5,6-5.8,7.2-8.9c0-4.6,0.6-9.4-0.4-14.1
				c10.2-9.9,21.7-15.1,29.7-15.1c12,0,16.9,7.3,16.3,28c-2,0-6.7,0-13.6-0.2c-26.1,0-36.5,16.3-36.5,27.2
				c0,11.1,10.8,19.1,20.6,19.1c6.9,0,21.5-1.8,29.5-8.8c1.7,4.8,4.5,7,6.5,8.8c7.5,0.8,17.4-1.8,19.9-2.5c0.2-2.7,0.2-5.9,0-8.2
				l-10.5,0.4c-1.2,0-1.8-1-1.8-2.9c0-2.6-0.6-6-0.6-12.5c2.6,7.2,12.8,19.9,32,17.8c16.3-1.8,23.2-8.1,23.2-8.1
				c1.8,4.1,3.6,6.7,5.4,8.1c8.2,0.4,15.5-2,18.4-2.9V131l-9.6,0.5c-1.4,0-2-1.3-2-3.8c0.1-17.6,1.3-55.7,1.3-56.8
				c1.2,0,6.4,0.2,6.4,0.2c0.5,0,0.8,0.2,0.8,0.5c2.6,6.7,5.5,12.8,9.6,23.4c4.6,12.5,8.7,22.2,13.9,35.4
				c-2.6,6.5-7.7,13.9-12.2,19.3c-4.1,4.7-9.1,9.2-14.7,13c0,1.9,7.3,7.1,10.1,7.1c4.4-2.4,13.8-13,19.1-20.4
				c11.4-15.9,17-29.9,23.7-47.3c5.7-14.9,8.8-26.9,10.6-31.8l7.2-0.5c0.2-2.3,0.2-5.9,0.2-8C423.4,61.8,418.8,61.8,414.4,61.8z
				 M71,152c-8,0-13.3,0-14.6-0.5l0.6-75.2c1.7-0.8,6.6-1.4,15.7-1.4c27.1,0,45.6,12.9,45.6,38.7C118.3,130,106.1,152,71,152z
				 M204,102.3c-13.8,0.5-33.4,0.7-47.2,0.7c0.7-12.3,7-19.7,10.2-23.3c4.1-4.6,9.7-7.5,18.2-7.5c6.8,0,11.9,2.9,15.5,7.2
				c3.6,4.3,6.5,12,6.5,20.2C207.2,101.4,206,102.1,204,102.3z M269.7,129.6c0,1,0,1.4-0.6,1.6c-7.5,5.3-16.1,8-21.8,8
				c-7.7,0-13-4.3-13-10.5c0-8.8,7.1-16,24.6-16c5.7,0,9.8,0.2,10.8,0.4C269.7,118.3,269.7,125.9,269.7,129.6z M336.4,125.1
				c-5.8,4.1-9.5,7-17.1,7c-5.6,0-14.5-3.6-18.3-8.7c-4.2-5.6-6.9-10.6-6.9-19.6c0-10.3,1.8-16.2,6-22.2c4.2-5.6,13.2-9.8,20.6-9.8
				c6.3,0,12.3,1.8,17.6,4.7c0.2,13.7-0.8,30-0.8,46C337.5,123.6,337.5,124.4,336.4,125.1z"/>
		</g>
	</g>
	<g id="XMLID_27_">
		<g id="XMLID_37_">
			<path id="XMLID_38_" class="st0" d="M415.9,115c-4.9,0-9.1,5.2-8.2,12.2c3.1,1.5,8.2,2.8,8.2,7.6c0,4.9-3.7,9.8-11.1,15.1
				c1.4,1.7,3.1,3.9,4.7,5.7c9.8-5.5,18.3-14.8,18.3-26.9C427.8,121.5,422.1,115,415.9,115z"/>
		</g>
		<g id="XMLID_31_">
			<path id="XMLID_32_" class="st1" d="M415.9,115c-4.9,0-9.1,5.2-8.2,12.2c3.1,1.5,8.2,2.8,8.2,7.6c0,4.9-3.7,9.8-11.1,15.1
				c1.4,1.7,3.1,3.9,4.7,5.7c9.8-5.5,18.3-14.8,18.3-26.9C427.8,121.5,422.1,115,415.9,115z"/>
		</g>
	</g>
	<g id="XMLID_5_">
		<g id="XMLID_53_">
			<path id="XMLID_54_" class="st0" d="M411.8,294.9c-8.4,0.3-10.4,7.2-10.4,7c-7.2,1.8-15,3.3-19.7,3.3c-7.2,0-13.3-3.9-13.3-12.7
				c0-10,0-22.3,0.2-30.7c0-6.6,0-13.6,0-16.7h26.6c0.2-3.1,0-6.9,0-10.5c-10.5,0.2-15.8,0.1-26.2,0.1c0-8.6,0.2-25.9,0.4-32.9
				c0-0.4-0.2-0.6-0.6-0.6c-0.6,0-9.2,3.5-14.6,7c-0.2,5.9-0.6,19.4-0.6,25.1c-0.2,0.8-0.8,1.4-1.4,1.4c-2.8,0.1-11.1,0.3-17.5,0.4
				c-5.3-5.6-12.9-8.8-22.6-8.8c-22.4,0-38.1,15.8-42.5,37c0,0.1-0.2,0.1-0.3,0c-3.8-13.4-15.6-21.3-33.5-29.2
				c-22.9-10.1-30.2-13.7-30.2-29.1c0-7.9,3.7-14.3,8.4-18.3c5.3-4.6,13-6.6,20.7-6.6c6.8,0,12.8,1.5,16.3,4.4
				c0.7,0.4,1.1,1.3,1.5,2.6l3.7,20.7c4.2-0.4,8.4-1.1,12.3-1.5c-0.7-10.6-1.5-22-2.6-32.6c-5.5-2.9-17-4.8-26.9-4.8
				c-15,0-27.5,3.7-35.9,10.4c-7.9,6.4-14.3,17.2-14.3,29.3c0,19.2,13.9,29.3,33.3,38.1c21.4,9.9,31.7,13.2,31.7,32.4
				c0,7-2,12.3-7,17.6c-5.1,5.3-14.8,8.6-25.1,8.6c-7.7,0-16.3-2.2-20.5-5.1c-1.1-0.4-1.5-1.3-1.8-2.4l-4-23.1
				c-4,0.4-8.4,1.1-12.6,1.8c0.9,11.2,1.8,23.3,2.9,34.8c7.5,3.1,21.6,5.3,32.4,5.3c18.1,0,30.6-4.2,39.4-12.3
				c5.7-5,9.6-11.4,11.5-18.8c0-0.1,0.1-0.1,0.2,0c3.6,18.5,17.7,31.2,40.4,31.2c8.8,0,21.1-3.1,32.6-8.6c-0.4-2.9-1.2-6.4-2.3-9.2
				c-7.2,2.9-17.8,6.6-27.3,6.6c-8.4,0-15-1.2-21.1-8.2c-4.7-5.5-7-14.1-6.6-25.4c12.7,0,39.8-0.2,51.9-0.6c2.1-0.2,5.9-4.9,7-7.6
				c0-6-0.8-12.4-3.1-18.2H353c0,5.3-0.2,11.2-0.2,17.5c-0.2,5.1-0.4,21.7-0.4,32.4c0,6.1,0.2,10.9,5.7,15.8
				c5.5,5.1,11.5,5.3,16,5.3c7.3,0,18.7-1.6,28.2-5c1.8,3,5.2,5,9.5,5c6.1,0,10.9-4.9,10.9-10C422.7,300.8,419.2,294.6,411.8,294.9z
				 M325.8,261.3c-11.7,0.4-28.3,0.6-40,0.6c0.6-10.5,5.9-16.8,8.6-19.9c3.5-3.9,8.2-6.4,15.4-6.4c5.7,0,10,2.5,13.1,6.1
				c3.1,3.7,5.5,10.2,5.5,17.2C328.4,260.4,327.4,261.1,325.8,261.3z"/>
		</g>
		<g id="XMLID_45_">
			<path id="XMLID_46_" class="st1" d="M411.8,294.9c-8.4,0.3-10.4,7.2-10.4,7c-7.2,1.8-15,3.3-19.7,3.3c-7.2,0-13.3-3.9-13.3-12.7
				c0-10,0-22.3,0.2-30.7c0-6.6,0-13.6,0-16.7h26.6c0.2-3.1,0-6.9,0-10.5c-10.5,0.2-15.8,0.1-26.2,0.1c0-8.6,0.2-25.9,0.4-32.9
				c0-0.4-0.2-0.6-0.6-0.6c-0.6,0-9.2,3.5-14.6,7c-0.2,5.9-0.6,19.4-0.6,25.1c-0.2,0.8-0.8,1.4-1.4,1.4c-2.8,0.1-11.1,0.3-17.5,0.4
				c-5.3-5.6-12.9-8.8-22.6-8.8c-22.4,0-38.1,15.8-42.5,37c0,0.1-0.2,0.1-0.3,0c-3.8-13.4-15.6-21.3-33.5-29.2
				c-22.9-10.1-30.2-13.7-30.2-29.1c0-7.9,3.7-14.3,8.4-18.3c5.3-4.6,13-6.6,20.7-6.6c6.8,0,12.8,1.5,16.3,4.4
				c0.7,0.4,1.1,1.3,1.5,2.6l3.7,20.7c4.2-0.4,8.4-1.1,12.3-1.5c-0.7-10.6-1.5-22-2.6-32.6c-5.5-2.9-17-4.8-26.9-4.8
				c-15,0-27.5,3.7-35.9,10.4c-7.9,6.4-14.3,17.2-14.3,29.3c0,19.2,13.9,29.3,33.3,38.1c21.4,9.9,31.7,13.2,31.7,32.4
				c0,7-2,12.3-7,17.6c-5.1,5.3-14.8,8.6-25.1,8.6c-7.7,0-16.3-2.2-20.5-5.1c-1.1-0.4-1.5-1.3-1.8-2.4l-4-23.1
				c-4,0.4-8.4,1.1-12.6,1.8c0.9,11.2,1.8,23.3,2.9,34.8c7.5,3.1,21.6,5.3,32.4,5.3c18.1,0,30.6-4.2,39.4-12.3
				c5.7-5,9.6-11.4,11.5-18.8c0-0.1,0.1-0.1,0.2,0c3.6,18.5,17.7,31.2,40.4,31.2c8.8,0,21.1-3.1,32.6-8.6c-0.4-2.9-1.2-6.4-2.3-9.2
				c-7.2,2.9-17.8,6.6-27.3,6.6c-8.4,0-15-1.2-21.1-8.2c-4.7-5.5-7-14.1-6.6-25.4c12.7,0,39.8-0.2,51.9-0.6c2.1-0.2,5.9-4.9,7-7.6
				c0-6-0.8-12.4-3.1-18.2H353c0,5.3-0.2,11.2-0.2,17.5c-0.2,5.1-0.4,21.7-0.4,32.4c0,6.1,0.2,10.9,5.7,15.8
				c5.5,5.1,11.5,5.3,16,5.3c7.3,0,18.7-1.6,28.2-5c1.8,3,5.2,5,9.5,5c6.1,0,10.9-4.9,10.9-10C422.7,300.8,419.2,294.6,411.8,294.9z
				 M325.8,261.3c-11.7,0.4-28.3,0.6-40,0.6c0.6-10.5,5.9-16.8,8.6-19.9c3.5-3.9,8.2-6.4,15.4-6.4c5.7,0,10,2.5,13.1,6.1
				c3.1,3.7,5.5,10.2,5.5,17.2C328.4,260.4,327.4,261.1,325.8,261.3z"/>
		</g>
	</g>
	<g id="XMLID_6_">
		<g id="XMLID_33_">
			<path id="XMLID_34_" class="st0" d="M406.5,283.4c2.5-0.2,7.6-0.6,10.7-1.4c1-28.5,3.3-80.9,4.3-108.5c0-0.4,0-0.6-0.2-0.6
				c-2.5,0-15.6,2.3-19.7,3.9c1,13.9,2.3,37.1,2.7,51.4C404.6,240.5,406.1,271.1,406.5,283.4z"/>
		</g>
		<g id="XMLID_29_">
			<path id="XMLID_30_" class="st1" d="M406.5,283.4c2.5-0.2,7.6-0.6,10.7-1.4c1-28.5,3.3-80.9,4.3-108.5c0-0.4,0-0.6-0.2-0.6
				c-2.5,0-15.6,2.3-19.7,3.9c1,13.9,2.3,37.1,2.7,51.4C404.6,240.5,406.1,271.1,406.5,283.4z"/>
		</g>
	</g>
</g>
<g id="XMLID_1_">
</g>
<g id="XMLID_35_">
</g>
<g id="XMLID_36_">
</g>
<g id="XMLID_39_">
</g>
<g id="XMLID_40_">
</g>
<g id="XMLID_41_">
</g>
</svg>
